<?plantuml 1.2026.3beta3?><svg xmlns="http://www.w3.org/2000/svg" xmlns:xlink="http://www.w3.org/1999/xlink" contentStyleType="text/css" data-diagram-type="CLASS" height="824px" preserveAspectRatio="none" style="width:3915px;height:824px;background:#FFFFFF;" version="1.1" viewBox="0 0 3915 824" width="3915px" zoomAndPan="magnify"><defs/><g><!--cluster br--><g class="cluster" data-qualified-name="br" data-source-line="8" id="ent0004"><rect fill="none" height="803.27" rx="5" ry="5" style="stroke:#000000;stroke-width:1.5;" width="3894" x="7" y="7"/><text fill="#000000" font-family="sans-serif" font-size="14" font-weight="bold" lengthAdjust="spacing" textLength="16.9258" x="1945.5371" y="21.9951">br</text></g><!--cluster gov--><g class="cluster" data-qualified-name="br.gov" data-source-line="8" id="ent0005"><rect fill="none" height="736.27" rx="5" ry="5" style="stroke:#000000;stroke-width:1.5;" width="3846" x="31" y="50"/><text fill="#000000" font-family="sans-serif" font-size="14" font-weight="bold" lengthAdjust="spacing" textLength="28.7656" x="1939.6172" y="64.9951">gov</text></g><!--cluster serpro--><g class="cluster" data-qualified-name="br.gov.serpro" data-source-line="8" id="ent0006"><rect fill="none" height="669.27" rx="5" ry="5" style="stroke:#000000;stroke-width:1.5;" width="3798" x="55" y="93"/><text fill="#000000" font-family="sans-serif" font-size="14" font-weight="bold" lengthAdjust="spacing" textLength="51.2764" x="1928.3618" y="107.9951">serpro</text></g><!--cluster vaas--><g class="cluster" data-qualified-name="br.gov.serpro.vaas" data-source-line="8" id="ent0007"><rect fill="none" height="602.27" rx="5" ry="5" style="stroke:#000000;stroke-width:1.5;" width="3750" x="79" y="136"/><text fill="#000000" font-family="sans-serif" font-size="14" font-weight="bold" lengthAdjust="spacing" textLength="36.3535" x="1935.8232" y="150.9951">vaas</text></g><!--cluster domain--><g class="cluster" data-qualified-name="br.gov.serpro.vaas.domain" data-source-line="6" id="ent0002"><rect fill="none" height="535.27" rx="5" ry="5" style="stroke:#000000;stroke-width:1.5;" width="550" x="103" y="179"/><text fill="#000000" font-family="sans-serif" font-size="14" font-weight="bold" lengthAdjust="spacing" textLength="58.4404" x="348.7798" y="193.9951">domain</text></g><!--cluster validation--><g class="cluster" data-qualified-name="br.gov.serpro.vaas.validation" data-source-line="43" id="ent0015"><rect fill="none" height="289.48" rx="5" ry="5" style="stroke:#000000;stroke-width:1.5;" width="3128" x="677" y="408.49"/><text fill="#000000" font-family="sans-serif" font-size="14" font-weight="bold" lengthAdjust="spacing" textLength="78.7158" x="2201.6421" y="423.4851">validation</text></g><!--cluster service--><g class="cluster" data-qualified-name="br.gov.serpro.vaas.service" data-source-line="73" id="ent0027"><rect fill="none" height="180.49" rx="5" ry="5" style="stroke:#000000;stroke-width:1.5;" width="1249" x="1376" y="179"/><text fill="#000000" font-family="sans-serif" font-size="14" font-weight="bold" lengthAdjust="spacing" textLength="56.4512" x="1972.2744" y="193.9951">service</text></g><!--class Credential--><g class="entity" data-qualified-name="br.gov.serpro.vaas.domain.Credential" data-source-line="8" id="ent0003"><rect fill="#F1F1F1" height="80.5938" rx="5" ry="5" style="stroke:#181818;stroke-width:0.5;" width="241.3389" x="358.33" y="443.49"/><ellipse cx="438.5668" cy="459.49" fill="#A9DCDF" rx="11" ry="11" style="stroke:#181818;stroke-width:1;"/><path d="M438.6762,454.8338 L437.5199,459.9119 L439.8481,459.9119 L438.6762,454.8338 Z M437.1918,452.5994 L440.1762,452.5994 L443.5356,464.99 L441.0824,464.99 L440.3168,461.9275 L437.0356,461.9275 L436.2856,464.99 L433.8481,464.99 L437.1918,452.5994 Z " fill="#000000"/><text fill="#000000" font-family="sans-serif" font-size="14" font-style="italic" lengthAdjust="spacing" textLength="72.3652" x="459.0668" y="464.3367">Credential</text><line style="stroke:#181818;stroke-width:0.5;" x1="359.33" x2="598.6689" y1="475.49" y2="475.49"/><text fill="#000000" font-family="sans-serif" font-size="14" lengthAdjust="spacing" textLength="67.7988" x="364.33" y="492.4851">+id: Long</text><line style="stroke:#181818;stroke-width:0.5;" x1="359.33" x2="598.6689" y1="499.7869" y2="499.7869"/><text fill="#000000" font-family="sans-serif" font-size="14" font-style="italic" lengthAdjust="spacing" textLength="229.3389" x="364.33" y="516.782">+getAuthTypeEnum(): AuthType</text></g><!--class BasicCredential--><g class="entity" data-qualified-name="br.gov.serpro.vaas.domain.BasicCredential" data-source-line="13" id="ent0008"><rect fill="#F1F1F1" height="96.8906" rx="5" ry="5" style="stroke:#181818;stroke-width:0.5;" width="241.3389" x="119.33" y="593.23"/><ellipse cx="181.0346" cy="609.23" fill="#ADD1B2" rx="11" ry="11" style="stroke:#181818;stroke-width:1;"/><path d="M184.0033,614.8706 Q183.4252,615.1675 182.7846,615.3081 Q182.144,615.4644 181.4408,615.4644 Q178.9408,615.4644 177.6127,613.8238 Q176.3002,612.1675 176.3002,609.0425 Q176.3002,605.9175 177.6127,604.2613 Q178.9408,602.605 181.4408,602.605 Q182.144,602.605 182.7846,602.7613 Q183.4408,602.9175 184.0033,603.2144 L184.0033,605.9331 Q183.3783,605.355 182.7846,605.0894 Q182.1908,604.8081 181.5658,604.8081 Q180.2221,604.8081 179.5346,605.8863 Q178.8471,606.9488 178.8471,609.0425 Q178.8471,611.1363 179.5346,612.2144 Q180.2221,613.2769 181.5658,613.2769 Q182.1908,613.2769 182.7846,613.0113 Q183.3783,612.73 184.0033,612.1519 L184.0033,614.8706 Z " fill="#000000"/><text fill="#000000" font-family="sans-serif" font-size="14" lengthAdjust="spacing" textLength="109.4297" x="201.5346" y="614.0767">BasicCredential</text><line style="stroke:#181818;stroke-width:0.5;" x1="120.33" x2="359.6689" y1="625.23" y2="625.23"/><text fill="#000000" font-family="sans-serif" font-size="14" lengthAdjust="spacing" textLength="132.918" x="125.33" y="642.2251">+username: String</text><text fill="#000000" font-family="sans-serif" font-size="14" lengthAdjust="spacing" textLength="129.3906" x="125.33" y="658.522">+password: String</text><line style="stroke:#181818;stroke-width:0.5;" x1="120.33" x2="359.6689" y1="665.8238" y2="665.8238"/><text fill="#000000" font-family="sans-serif" font-size="14" lengthAdjust="spacing" textLength="229.3389" x="125.33" y="682.8189">+getAuthTypeEnum(): AuthType</text></g><!--class OAuth2Credential--><g class="entity" data-qualified-name="br.gov.serpro.vaas.domain.OAuth2Credential" data-source-line="19" id="ent0010"><rect fill="#F1F1F1" height="113.1875" rx="5" ry="5" style="stroke:#181818;stroke-width:0.5;" width="241.3389" x="395.33" y="585.08"/><ellipse cx="449.1972" cy="601.08" fill="#ADD1B2" rx="11" ry="11" style="stroke:#181818;stroke-width:1;"/><path d="M452.1659,606.7206 Q451.5878,607.0175 450.9472,607.1581 Q450.3066,607.3144 449.6034,607.3144 Q447.1034,607.3144 445.7753,605.6737 Q444.4628,604.0175 444.4628,600.8925 Q444.4628,597.7675 445.7753,596.1112 Q447.1034,594.455 449.6034,594.455 Q450.3066,594.455 450.9472,594.6112 Q451.6034,594.7675 452.1659,595.0644 L452.1659,597.7831 Q451.5409,597.205 450.9472,596.9394 Q450.3534,596.6581 449.7284,596.6581 Q448.3847,596.6581 447.6972,597.7362 Q447.0097,598.7987 447.0097,600.8925 Q447.0097,602.9862 447.6972,604.0644 Q448.3847,605.1269 449.7284,605.1269 Q450.3534,605.1269 450.9472,604.8612 Q451.5409,604.58 452.1659,604.0019 L452.1659,606.7206 Z " fill="#000000"/><text fill="#000000" font-family="sans-serif" font-size="14" lengthAdjust="spacing" textLength="125.1045" x="469.6972" y="605.9267">OAuth2Credential</text><line style="stroke:#181818;stroke-width:0.5;" x1="396.33" x2="635.6689" y1="617.08" y2="617.08"/><text fill="#000000" font-family="sans-serif" font-size="14" lengthAdjust="spacing" textLength="122.2197" x="401.33" y="634.0751">+tokenUrl: String</text><text fill="#000000" font-family="sans-serif" font-size="14" lengthAdjust="spacing" textLength="114.1465" x="401.33" y="650.372">+clientId: String</text><text fill="#000000" font-family="sans-serif" font-size="14" lengthAdjust="spacing" textLength="146.1865" x="401.33" y="666.6689">+clientSecret: String</text><line style="stroke:#181818;stroke-width:0.5;" x1="396.33" x2="635.6689" y1="673.9706" y2="673.9706"/><text fill="#000000" font-family="sans-serif" font-size="14" lengthAdjust="spacing" textLength="229.3389" x="401.33" y="690.9657">+getAuthTypeEnum(): AuthType</text></g><!--class AuthType--><g class="entity" data-qualified-name="br.gov.serpro.vaas.domain.AuthType" data-source-line="26" id="ent0012"><rect fill="#F1F1F1" height="80.5938" rx="5" ry="5" style="stroke:#181818;stroke-width:0.5;" width="99.1494" x="191.43" y="238.45"/><ellipse cx="206.43" cy="254.45" fill="#EB937F" rx="11" ry="11" style="stroke:#181818;stroke-width:1;"/><path d="M210.5394,260.45 L202.8206,260.45 L202.8206,248.0594 L210.5394,248.0594 L210.5394,250.2156 L205.2738,250.2156 L205.2738,252.8875 L210.0394,252.8875 L210.0394,255.0437 L205.2738,255.0437 L205.2738,258.2937 L210.5394,258.2937 L210.5394,260.45 Z " fill="#000000"/><text fill="#000000" font-family="sans-serif" font-size="14" lengthAdjust="spacing" textLength="67.1494" x="220.43" y="259.2967">AuthType</text><line style="stroke:#181818;stroke-width:0.5;" x1="192.43" x2="289.5794" y1="270.45" y2="270.45"/><text fill="#000000" font-family="sans-serif" font-size="14" lengthAdjust="spacing" textLength="41.9727" x="197.43" y="287.4451">BASIC</text><text fill="#000000" font-family="sans-serif" font-size="14" lengthAdjust="spacing" textLength="58.8301" x="197.43" y="303.742">OAUTH2</text><line style="stroke:#181818;stroke-width:0.5;" x1="192.43" x2="289.5794" y1="311.0437" y2="311.0437"/></g><!--class Source--><g class="entity" data-qualified-name="br.gov.serpro.vaas.domain.Source" data-source-line="31" id="ent0013"><rect fill="#F1F1F1" height="129.4844" rx="5" ry="5" style="stroke:#181818;stroke-width:0.5;" width="235.8428" x="361.08" y="214"/><ellipse cx="450.5556" cy="230" fill="#ADD1B2" rx="11" ry="11" style="stroke:#181818;stroke-width:1;"/><path d="M453.5243,235.6406 Q452.9462,235.9375 452.3056,236.0781 Q451.665,236.2344 450.9618,236.2344 Q448.4618,236.2344 447.1337,234.5938 Q445.8212,232.9375 445.8212,229.8125 Q445.8212,226.6875 447.1337,225.0313 Q448.4618,223.375 450.9618,223.375 Q451.665,223.375 452.3056,223.5313 Q452.9618,223.6875 453.5243,223.9844 L453.5243,226.7031 Q452.8993,226.125 452.3056,225.8594 Q451.7118,225.5781 451.0868,225.5781 Q449.7431,225.5781 449.0556,226.6563 Q448.3681,227.7188 448.3681,229.8125 Q448.3681,231.9063 449.0556,232.9844 Q449.7431,234.0469 451.0868,234.0469 Q451.7118,234.0469 452.3056,233.7813 Q452.8993,233.5 453.5243,232.9219 L453.5243,235.6406 Z " fill="#000000"/><text fill="#000000" font-family="sans-serif" font-size="14" lengthAdjust="spacing" textLength="48.3916" x="471.0556" y="234.8467">Source</text><line style="stroke:#181818;stroke-width:0.5;" x1="362.08" x2="595.9228" y1="246" y2="246"/><text fill="#000000" font-family="sans-serif" font-size="14" lengthAdjust="spacing" textLength="75.4551" x="367.08" y="262.9951">+id: String</text><text fill="#000000" font-family="sans-serif" font-size="14" lengthAdjust="spacing" textLength="81.1973" x="367.08" y="279.292">+uri: String</text><text fill="#000000" font-family="sans-serif" font-size="14" lengthAdjust="spacing" textLength="130.4502" x="367.08" y="295.5889">+isPublic: Boolean</text><text fill="#000000" font-family="sans-serif" font-size="14" lengthAdjust="spacing" textLength="223.8428" x="367.08" y="311.8857">+allowedClientIds: Set&lt;String&gt;</text><line style="stroke:#181818;stroke-width:0.5;" x1="362.08" x2="595.9228" y1="319.1875" y2="319.1875"/><text fill="#000000" font-family="sans-serif" font-size="14" lengthAdjust="spacing" textLength="176.5518" x="367.08" y="336.1826">+resourceLocation(): URI</text></g><!--class Validation--><g class="entity" data-qualified-name="br.gov.serpro.vaas.validation.Validation" data-source-line="45" id="ent0016"><rect fill="#F1F1F1" height="80.5938" rx="5" ry="5" style="stroke:#181818;stroke-width:0.5;" width="591.0586" x="1945.47" y="443.49"/><ellipse cx="2201.6399" cy="459.49" fill="#B4A7E5" rx="11" ry="11" style="stroke:#181818;stroke-width:1;"/><path d="M2197.5618,455.2556 L2197.5618,453.0994 L2204.9524,453.0994 L2204.9524,455.2556 L2202.4837,455.2556 L2202.4837,463.3338 L2204.9524,463.3338 L2204.9524,465.49 L2197.5618,465.49 L2197.5618,463.3338 L2200.0305,463.3338 L2200.0305,455.2556 L2197.5618,455.2556 Z " fill="#000000"/><text fill="#000000" font-family="sans-serif" font-size="14" font-style="italic" lengthAdjust="spacing" textLength="70.2188" x="2222.1399" y="464.3367">Validation</text><line style="stroke:#181818;stroke-width:0.5;" x1="1946.47" x2="2535.5286" y1="475.49" y2="475.49"/><line style="stroke:#181818;stroke-width:0.5;" x1="1946.47" x2="2535.5286" y1="483.49" y2="483.49"/><text fill="#000000" font-family="sans-serif" font-size="14" font-style="italic" lengthAdjust="spacing" textLength="579.0586" x="1951.47" y="500.4851">+execute(attribute: String, value: String, referenceValue: String): ValidationResult</text><text fill="#000000" font-family="sans-serif" font-size="14" lengthAdjust="spacing" text-decoration="underline" textLength="291.7852" x="1951.47" y="516.782">+create(type: ValidationType): Validation</text></g><!--class RegistrationValidation--><g class="entity" data-qualified-name="br.gov.serpro.vaas.validation.RegistrationValidation" data-source-line="50" id="ent0017"><rect fill="#F1F1F1" height="80.5938" rx="5" ry="5" style="stroke:#181818;stroke-width:0.5;" width="591.0586" x="693.47" y="601.38"/><ellipse cx="907.1136" cy="617.38" fill="#ADD1B2" rx="11" ry="11" style="stroke:#181818;stroke-width:1;"/><path d="M910.0823,623.0206 Q909.5042,623.3175 908.8636,623.4581 Q908.2229,623.6144 907.5198,623.6144 Q905.0198,623.6144 903.6917,621.9738 Q902.3792,620.3175 902.3792,617.1925 Q902.3792,614.0675 903.6917,612.4113 Q905.0198,610.755 907.5198,610.755 Q908.2229,610.755 908.8636,610.9113 Q909.5198,611.0675 910.0823,611.3644 L910.0823,614.0831 Q909.4573,613.505 908.8636,613.2394 Q908.2698,612.9581 907.6448,612.9581 Q906.3011,612.9581 905.6136,614.0363 Q904.9261,615.0988 904.9261,617.1925 Q904.9261,619.2863 905.6136,620.3644 Q906.3011,621.4269 907.6448,621.4269 Q908.2698,621.4269 908.8636,621.1613 Q909.4573,620.88 910.0823,620.3019 L910.0823,623.0206 Z " fill="#000000"/><text fill="#000000" font-family="sans-serif" font-size="14" lengthAdjust="spacing" textLength="155.2715" x="927.6136" y="622.2267">RegistrationValidation</text><line style="stroke:#181818;stroke-width:0.5;" x1="694.47" x2="1283.5286" y1="633.38" y2="633.38"/><line style="stroke:#181818;stroke-width:0.5;" x1="694.47" x2="1283.5286" y1="641.38" y2="641.38"/><text fill="#000000" font-family="sans-serif" font-size="14" lengthAdjust="spacing" textLength="579.0586" x="699.47" y="658.3751">+execute(attribute: String, value: String, referenceValue: String): ValidationResult</text><text fill="#000000" font-family="sans-serif" font-size="14" lengthAdjust="spacing" textLength="369.9404" x="699.47" y="674.672">-calculateSimilarity(str1: String, str2: String): Double</text></g><!--class FacialValidation--><g class="entity" data-qualified-name="br.gov.serpro.vaas.validation.FacialValidation" data-source-line="55" id="ent0019"><rect fill="#F1F1F1" height="64.2969" rx="5" ry="5" style="stroke:#181818;stroke-width:0.5;" width="591.0586" x="1319.47" y="609.53"/><ellipse cx="1555.2962" cy="625.53" fill="#ADD1B2" rx="11" ry="11" style="stroke:#181818;stroke-width:1;"/><path d="M1558.2649,631.1706 Q1557.6868,631.4675 1557.0462,631.6081 Q1556.4055,631.7644 1555.7024,631.7644 Q1553.2024,631.7644 1551.8743,630.1238 Q1550.5618,628.4675 1550.5618,625.3425 Q1550.5618,622.2175 1551.8743,620.5613 Q1553.2024,618.905 1555.7024,618.905 Q1556.4055,618.905 1557.0462,619.0613 Q1557.7024,619.2175 1558.2649,619.5144 L1558.2649,622.2331 Q1557.6399,621.655 1557.0462,621.3894 Q1556.4524,621.1081 1555.8274,621.1081 Q1554.4837,621.1081 1553.7962,622.1863 Q1553.1087,623.2488 1553.1087,625.3425 Q1553.1087,627.4363 1553.7962,628.5144 Q1554.4837,629.5769 1555.8274,629.5769 Q1556.4524,629.5769 1557.0462,629.3113 Q1557.6399,629.03 1558.2649,628.4519 L1558.2649,631.1706 Z " fill="#000000"/><text fill="#000000" font-family="sans-serif" font-size="14" lengthAdjust="spacing" textLength="110.9063" x="1575.7962" y="630.3767">FacialValidation</text><line style="stroke:#181818;stroke-width:0.5;" x1="1320.47" x2="1909.5286" y1="641.53" y2="641.53"/><line style="stroke:#181818;stroke-width:0.5;" x1="1320.47" x2="1909.5286" y1="649.53" y2="649.53"/><text fill="#000000" font-family="sans-serif" font-size="14" lengthAdjust="spacing" textLength="579.0586" x="1325.47" y="666.5251">+execute(attribute: String, value: String, referenceValue: String): ValidationResult</text></g><!--class DigitalValidation--><g class="entity" data-qualified-name="br.gov.serpro.vaas.validation.DigitalValidation" data-source-line="59" id="ent0021"><rect fill="#F1F1F1" height="64.2969" rx="5" ry="5" style="stroke:#181818;stroke-width:0.5;" width="591.0586" x="1945.47" y="609.53"/><ellipse cx="2178.9378" cy="625.53" fill="#ADD1B2" rx="11" ry="11" style="stroke:#181818;stroke-width:1;"/><path d="M2181.9065,631.1706 Q2181.3284,631.4675 2180.6878,631.6081 Q2180.0471,631.7644 2179.344,631.7644 Q2176.844,631.7644 2175.5159,630.1238 Q2174.2034,628.4675 2174.2034,625.3425 Q2174.2034,622.2175 2175.5159,620.5613 Q2176.844,618.905 2179.344,618.905 Q2180.0471,618.905 2180.6878,619.0613 Q2181.344,619.2175 2181.9065,619.5144 L2181.9065,622.2331 Q2181.2815,621.655 2180.6878,621.3894 Q2180.094,621.1081 2179.469,621.1081 Q2178.1253,621.1081 2177.4378,622.1863 Q2176.7503,623.2488 2176.7503,625.3425 Q2176.7503,627.4363 2177.4378,628.5144 Q2178.1253,629.5769 2179.469,629.5769 Q2180.094,629.5769 2180.6878,629.3113 Q2181.2815,629.03 2181.9065,628.4519 L2181.9065,631.1706 Z " fill="#000000"/><text fill="#000000" font-family="sans-serif" font-size="14" lengthAdjust="spacing" textLength="115.623" x="2199.4378" y="630.3767">DigitalValidation</text><line style="stroke:#181818;stroke-width:0.5;" x1="1946.47" x2="2535.5286" y1="641.53" y2="641.53"/><line style="stroke:#181818;stroke-width:0.5;" x1="1946.47" x2="2535.5286" y1="649.53" y2="649.53"/><text fill="#000000" font-family="sans-serif" font-size="14" lengthAdjust="spacing" textLength="579.0586" x="1951.47" y="666.5251">+execute(attribute: String, value: String, referenceValue: String): ValidationResult</text></g><!--class QRCodeValidation--><g class="entity" data-qualified-name="br.gov.serpro.vaas.validation.QRCodeValidation" data-source-line="63" id="ent0023"><rect fill="#F1F1F1" height="64.2969" rx="5" ry="5" style="stroke:#181818;stroke-width:0.5;" width="591.0586" x="2571.47" y="609.53"/><ellipse cx="2799.346" cy="625.53" fill="#ADD1B2" rx="11" ry="11" style="stroke:#181818;stroke-width:1;"/><path d="M2802.3147,631.1706 Q2801.7366,631.4675 2801.096,631.6081 Q2800.4554,631.7644 2799.7522,631.7644 Q2797.2522,631.7644 2795.9241,630.1238 Q2794.6116,628.4675 2794.6116,625.3425 Q2794.6116,622.2175 2795.9241,620.5613 Q2797.2522,618.905 2799.7522,618.905 Q2800.4554,618.905 2801.096,619.0613 Q2801.7522,619.2175 2802.3147,619.5144 L2802.3147,622.2331 Q2801.6897,621.655 2801.096,621.3894 Q2800.5022,621.1081 2799.8772,621.1081 Q2798.5335,621.1081 2797.846,622.1863 Q2797.1585,623.2488 2797.1585,625.3425 Q2797.1585,627.4363 2797.846,628.5144 Q2798.5335,629.5769 2799.8772,629.5769 Q2800.5022,629.5769 2801.096,629.3113 Q2801.6897,629.03 2802.3147,628.4519 L2802.3147,631.1706 Z " fill="#000000"/><text fill="#000000" font-family="sans-serif" font-size="14" lengthAdjust="spacing" textLength="126.8066" x="2819.846" y="630.3767">QRCodeValidation</text><line style="stroke:#181818;stroke-width:0.5;" x1="2572.47" x2="3161.5286" y1="641.53" y2="641.53"/><line style="stroke:#181818;stroke-width:0.5;" x1="2572.47" x2="3161.5286" y1="649.53" y2="649.53"/><text fill="#000000" font-family="sans-serif" font-size="14" lengthAdjust="spacing" textLength="579.0586" x="2577.47" y="666.5251">+execute(attribute: String, value: String, referenceValue: String): ValidationResult</text></g><!--class FacialWithLivenessValidation--><g class="entity" data-qualified-name="br.gov.serpro.vaas.validation.FacialWithLivenessValidation" data-source-line="67" id="ent0025"><rect fill="#F1F1F1" height="64.2969" rx="5" ry="5" style="stroke:#181818;stroke-width:0.5;" width="591.0586" x="3197.47" y="609.53"/><ellipse cx="3386.9178" cy="625.53" fill="#ADD1B2" rx="11" ry="11" style="stroke:#181818;stroke-width:1;"/><path d="M3389.8865,631.1706 Q3389.3084,631.4675 3388.6678,631.6081 Q3388.0271,631.7644 3387.324,631.7644 Q3384.824,631.7644 3383.4959,630.1238 Q3382.1834,628.4675 3382.1834,625.3425 Q3382.1834,622.2175 3383.4959,620.5613 Q3384.824,618.905 3387.324,618.905 Q3388.0271,618.905 3388.6678,619.0613 Q3389.324,619.2175 3389.8865,619.5144 L3389.8865,622.2331 Q3389.2615,621.655 3388.6678,621.3894 Q3388.074,621.1081 3387.449,621.1081 Q3386.1053,621.1081 3385.4178,622.1863 Q3384.7303,623.2488 3384.7303,625.3425 Q3384.7303,627.4363 3385.4178,628.5144 Q3386.1053,629.5769 3387.449,629.5769 Q3388.074,629.5769 3388.6678,629.3113 Q3389.2615,629.03 3389.8865,628.4519 L3389.8865,631.1706 Z " fill="#000000"/><text fill="#000000" font-family="sans-serif" font-size="14" lengthAdjust="spacing" textLength="203.6631" x="3407.4178" y="630.3767">FacialWithLivenessValidation</text><line style="stroke:#181818;stroke-width:0.5;" x1="3198.47" x2="3787.5286" y1="641.53" y2="641.53"/><line style="stroke:#181818;stroke-width:0.5;" x1="3198.47" x2="3787.5286" y1="649.53" y2="649.53"/><text fill="#000000" font-family="sans-serif" font-size="14" lengthAdjust="spacing" textLength="579.0586" x="3203.47" y="666.5251">+execute(attribute: String, value: String, referenceValue: String): ValidationResult</text></g><!--class SourceService--><g class="entity" data-qualified-name="br.gov.serpro.vaas.service.SourceService" data-source-line="75" id="ent0028"><rect fill="#F1F1F1" height="129.4844" rx="5" ry="5" style="stroke:#181818;stroke-width:0.5;" width="445.8906" x="1392.05" y="214"/><ellipse cx="1560.6789" cy="230" fill="#ADD1B2" rx="11" ry="11" style="stroke:#181818;stroke-width:1;"/><path d="M1563.6477,235.6406 Q1563.0695,235.9375 1562.4289,236.0781 Q1561.7883,236.2344 1561.0852,236.2344 Q1558.5852,236.2344 1557.257,234.5938 Q1555.9445,232.9375 1555.9445,229.8125 Q1555.9445,226.6875 1557.257,225.0313 Q1558.5852,223.375 1561.0852,223.375 Q1561.7883,223.375 1562.4289,223.5313 Q1563.0852,223.6875 1563.6477,223.9844 L1563.6477,226.7031 Q1563.0227,226.125 1562.4289,225.8594 Q1561.8352,225.5781 1561.2102,225.5781 Q1559.8664,225.5781 1559.1789,226.6563 Q1558.4914,227.7188 1558.4914,229.8125 Q1558.4914,231.9063 1559.1789,232.9844 Q1559.8664,234.0469 1561.2102,234.0469 Q1561.8352,234.0469 1562.4289,233.7813 Q1563.0227,233.5 1563.6477,232.9219 L1563.6477,235.6406 Z " fill="#000000"/><text fill="#000000" font-family="sans-serif" font-size="14" lengthAdjust="spacing" textLength="100.1328" x="1581.1789" y="234.8467">SourceService</text><line style="stroke:#181818;stroke-width:0.5;" x1="1393.05" x2="1836.9406" y1="246" y2="246"/><line style="stroke:#181818;stroke-width:0.5;" x1="1393.05" x2="1836.9406" y1="254" y2="254"/><text fill="#000000" font-family="sans-serif" font-size="14" lengthAdjust="spacing" textLength="433.8906" x="1398.05" y="270.9951">+persiste(id: String, sourceInfo: SourceInfo): SourceResponse</text><text fill="#000000" font-family="sans-serif" font-size="14" lengthAdjust="spacing" textLength="274.5791" x="1398.05" y="287.292">+recupera(id: String): SourceResponse</text><text fill="#000000" font-family="sans-serif" font-size="14" lengthAdjust="spacing" textLength="268.7754" x="1398.05" y="303.5889">+recuperaEntidade(id: String): Source</text><text fill="#000000" font-family="sans-serif" font-size="14" lengthAdjust="spacing" textLength="433.2822" x="1398.05" y="319.8857">+atualiza(id: String, sourceInfo: SourceInfo): SourceResponse</text><text fill="#000000" font-family="sans-serif" font-size="14" lengthAdjust="spacing" textLength="139.8496" x="1398.05" y="336.1826">+remove(id: String)</text></g><!--class ValidationService--><g class="entity" data-qualified-name="br.gov.serpro.vaas.service.ValidationService" data-source-line="83" id="ent0029"><rect fill="#F1F1F1" height="80.5938" rx="5" ry="5" style="stroke:#181818;stroke-width:0.5;" width="736.5889" x="1872.71" y="238.45"/><ellipse cx="2175.7745" cy="254.45" fill="#ADD1B2" rx="11" ry="11" style="stroke:#181818;stroke-width:1;"/><path d="M2178.7432,260.0906 Q2178.1651,260.3875 2177.5245,260.5281 Q2176.8838,260.6844 2176.1807,260.6844 Q2173.6807,260.6844 2172.3526,259.0437 Q2171.0401,257.3875 2171.0401,254.2625 Q2171.0401,251.1375 2172.3526,249.4812 Q2173.6807,247.825 2176.1807,247.825 Q2176.8838,247.825 2177.5245,247.9812 Q2178.1807,248.1375 2178.7432,248.4344 L2178.7432,251.1531 Q2178.1182,250.575 2177.5245,250.3094 Q2176.9307,250.0281 2176.3057,250.0281 Q2174.962,250.0281 2174.2745,251.1062 Q2173.587,252.1687 2173.587,254.2625 Q2173.587,256.3562 2174.2745,257.4344 Q2174.962,258.4969 2176.3057,258.4969 Q2176.9307,258.4969 2177.5245,258.2312 Q2178.1182,257.95 2178.7432,257.3719 L2178.7432,260.0906 Z " fill="#000000"/><text fill="#000000" font-family="sans-serif" font-size="14" lengthAdjust="spacing" textLength="121.96" x="2196.2745" y="259.2967">ValidationService</text><line style="stroke:#181818;stroke-width:0.5;" x1="1873.71" x2="2608.2989" y1="270.45" y2="270.45"/><line style="stroke:#181818;stroke-width:0.5;" x1="1873.71" x2="2608.2989" y1="278.45" y2="278.45"/><text fill="#000000" font-family="sans-serif" font-size="14" lengthAdjust="spacing" textLength="416.5273" x="1878.71" y="295.4451">+validate(request: ValidationRequest): ValidationResponse</text><text fill="#000000" font-family="sans-serif" font-size="14" lengthAdjust="spacing" textLength="724.5889" x="1878.71" y="311.742">-execute(validations: List&lt;ValidationItem&gt;, responseData: Map&lt;String, Any&gt;): List&lt;ValidationResult&gt;</text></g><!--reverse link Credential to BasicCredential--><g class="link" data-entity-1="ent0003" data-entity-2="ent0008" data-link-type="extension" data-source-line="14" id="lnk9"><path d="M402.9915,534.3605 C371.0415,555.1905 346.76,571.04 313.17,592.95" fill="none" id="Credential-backto-BasicCredential" style="stroke:#181818;stroke-width:1;"/><polygon fill="none" points="418.07,524.53,399.7147,529.3344,406.2683,539.3867,418.07,524.53" style="stroke:#181818;stroke-width:1;"/></g><!--reverse link Credential to OAuth2Credential--><g class="link" data-entity-1="ent0003" data-entity-2="ent0010" data-link-type="extension" data-source-line="20" id="lnk11"><path d="M492.5905,542.0426 C496.9405,560.3526 498.01,564.89 502.75,584.83" fill="none" id="Credential-backto-OAuth2Credential" style="stroke:#181818;stroke-width:1;"/><polygon fill="none" points="488.43,524.53,486.753,543.4294,498.4281,540.6557,488.43,524.53" style="stroke:#181818;stroke-width:1;"/></g><!--reverse link Source to Credential--><g class="link" data-entity-1="ent0013" data-entity-2="ent0003" data-link-type="composition" data-source-line="39" id="lnk14"><path codeLine="39" d="M479,355.71 C479,388.26 479,414.8 479,443.05" fill="none" id="Source-backto-Credential" style="stroke:#181818;stroke-width:1;"/><polygon fill="#181818" points="479,343.71,475,349.71,479,355.71,483,349.71,479,343.71" style="stroke:#181818;stroke-width:1;"/><polygon fill="#000000" points="484,389.0564,486.9389,380.0113,481.0611,380.0113,484,389.0564" style="stroke:#000000;stroke-width:1;"/><text fill="#000000" font-family="sans-serif" font-size="13" lengthAdjust="spacing" textLength="41.6025" x="493" y="388.5569">possui</text><text fill="#000000" font-family="sans-serif" font-size="13" lengthAdjust="spacing" textLength="8.271" x="470.5772" y="363.7103">1</text><text fill="#000000" font-family="sans-serif" font-size="13" lengthAdjust="spacing" textLength="24.8066" x="453.1519" y="432.4397">0..1</text></g><!--reverse link Validation to RegistrationValidation--><g class="link" data-entity-1="ent0016" data-entity-2="ent0017" data-link-type="extension" data-source-line="51" id="lnk18"><path d="M1927.1823,512.8093 C1741.9923,530.5793 1516.57,554.61 1302,585.08 C1269.35,589.72 1234.89,595.22 1201.25,600.93" fill="none" id="Validation-backto-RegistrationValidation" style="stroke:#181818;stroke-width:1;stroke-dasharray:7,7;"/><polygon fill="none" points="1945.1,511.09,1926.6092,506.8367,1927.7554,518.7819,1945.1,511.09" style="stroke:#181818;stroke-width:1;"/></g><!--reverse link Validation to FacialValidation--><g class="link" data-entity-1="ent0016" data-entity-2="ent0019" data-link-type="extension" data-source-line="56" id="lnk20"><path d="M2063.9432,528.8785 C1958.6232,555.0985 1839.98,584.65 1742.01,609.05" fill="none" id="Validation-backto-FacialValidation" style="stroke:#181818;stroke-width:1;stroke-dasharray:7,7;"/><polygon fill="none" points="2081.41,524.53,2062.4937,523.0562,2065.3926,534.7008,2081.41,524.53" style="stroke:#181818;stroke-width:1;"/></g><!--reverse link Validation to DigitalValidation--><g class="link" data-entity-1="ent0016" data-entity-2="ent0021" data-link-type="extension" data-source-line="60" id="lnk22"><path d="M2241,542.53 C2241,568.78 2241,584.71 2241,609.11" fill="none" id="Validation-backto-DigitalValidation" style="stroke:#181818;stroke-width:1;stroke-dasharray:7,7;"/><polygon fill="none" points="2241,524.53,2235,542.53,2247,542.53,2241,524.53" style="stroke:#181818;stroke-width:1;"/></g><!--reverse link Validation to QRCodeValidation--><g class="link" data-entity-1="ent0016" data-entity-2="ent0023" data-link-type="extension" data-source-line="64" id="lnk24"><path d="M2418.0568,528.8785 C2523.3768,555.0985 2642.02,584.65 2739.99,609.05" fill="none" id="Validation-backto-QRCodeValidation" style="stroke:#181818;stroke-width:1;stroke-dasharray:7,7;"/><polygon fill="none" points="2400.59,524.53,2416.6074,534.7008,2419.5063,523.0562,2400.59,524.53" style="stroke:#181818;stroke-width:1;"/></g><!--reverse link Validation to FacialWithLivenessValidation--><g class="link" data-entity-1="ent0016" data-entity-2="ent0025" data-link-type="extension" data-source-line="68" id="lnk26"><path d="M2554.8177,512.8093 C2740.0077,530.5793 2965.43,554.61 3180,585.08 C3228.09,591.91 3280.1,600.62 3327.65,609.1" fill="none" id="Validation-backto-FacialWithLivenessValidation" style="stroke:#181818;stroke-width:1;stroke-dasharray:7,7;"/><polygon fill="none" points="2536.9,511.09,2554.2446,518.7819,2555.3908,506.8367,2536.9,511.09" style="stroke:#181818;stroke-width:1;"/></g><!--link ValidationService to Validation--><g class="link" data-entity-1="ent0029" data-entity-2="ent0016" data-link-type="dependency" data-source-line="88" id="lnk30"><path codeLine="88" d="M2241,319.38 C2241,355.15 2241,401.51 2241,437.26" fill="none" id="ValidationService-to-Validation" style="stroke:#181818;stroke-width:1;stroke-dasharray:7,7;"/><polygon fill="#181818" points="2241,443.26,2245,434.26,2241,438.26,2237,434.26,2241,443.26" style="stroke:#181818;stroke-width:1;"/><polygon fill="#000000" points="2246,389.0564,2248.9389,380.0113,2243.0611,380.0113,2246,389.0564" style="stroke:#000000;stroke-width:1;"/><text fill="#000000" font-family="sans-serif" font-size="13" lengthAdjust="spacing" textLength="94.3643" x="2255" y="388.5569">Factory.create</text></g><?plantuml-src pLNTRzem47_dhx1uejk8sZv65HAbdOR4r8sqtVFX7AbLnyxyGKid_lTT212dWRNQD8ayHBRFlxlVVTe-2bM0WPnn2TOEdJDYvXsEkLQ9U45ssh6xAxbMcZyOdIERWxGOY8psAkNQA3JiBCGKm1yXmyGj9JA3t87A97OwctFMdPaequl8eYcCZXO0Dafr3a9rsQyEes_zWvbr1hYhQBAHmHIL4o0tbyhl8nDfp2PQPS7HhoronJ9qG-yURfS5NYkVzqvYjjsl0QlQN6Nb4gpWWIbyTgZIWzOz-Q0WnvWb5CK6YuBKFMcJxX6zpIfWT5EApjzFoUb7L7T6xh7BfI30E3qeIf0RT7_5U1T79FbE632x72RZqMvtCxox_NBUzZRHtd1iPRX5o1knvrJORtuc1O_PfTOIGGKoa58_OJhQnC0I7Dr5fM8Gt3DernmcceCJMfM-tat7hztS4EsUTTc7VfzrJwE8ba5EOjOjjBLUi46tWgt-t08Ba29TcopRO0qHog6P0zcvtmaRiGbA7P-HKnVtODlFs_XyOgJP1rk3SpIeEDw7v-HcRMIAraiN6hAE17p5g420h3XARWWeaztGiB-zffY9ad1v8t19v8N4d09d3pdwFxthCmwIUqb-9I8N4enmonxHFAkrqkuyq7MbgSuEZ93Fm2d_H-5TYzkLo8GxLdBVfoETud5ogvBwGxY7YLYWGckFYUSRauNM2y6nyRg6upQfv0t61HfBhOgzUlnI5wolZzLSnnjekJxPReXOePN5nZJbdbH1eEOzrwzfXgQGuZvOEDETfwYym3-JpFMYOQlzCDNXtnUjpUp6di6V7grhfcjzz3g5JHBzNOdKpm0zKHDAmKKD6plC1sMDLEWhS12phr1SR7qVgkNWf0Mh2cOGEjLs9ue6OVNIyqKrxxHPHjN8Bv-nrMy0?></g></svg>